<svg width="300" height="60" fill="none" xmlns="http://www.w3.org/2000/svg"><path d="M103.05 37.747c-1.263 0-2.4-.124-3.41-.37-1.01-.246-1.9-.601-2.67-1.065a7.438 7.438 0 01-1.966-1.695 8.319 8.319 0 01-1.298-2.264 9.81 9.81 0 01-.568-2.237 19.893 19.893 0 01-.172-2.742V13.16h4.42v13.817c0 1.708.204 3.043.613 4.005.457 1.07 1.124 1.843 2.002 2.318.878.475 1.912.713 3.103.713 1.19 0 2.224-.238 3.102-.713.878-.475 1.545-1.248 2.003-2.318.408-.962.613-2.297.613-4.005V13.16h4.419v14.214c0 1.01-.057 1.925-.171 2.742a9.835 9.835 0 01-.568 2.237 8.201 8.201 0 01-1.308 2.264 7.421 7.421 0 01-2.002 1.695c-.788.464-1.693.819-2.715 1.065-1.022.246-2.165.37-3.427.37zm16.243-.452V13.16h4.419v10.985h.072l9.11-10.985h5.484l-10.066 11.96 10.895 12.175h-5.664L123.784 26.4h-.072v10.895h-4.419zm41.756-16.884c0 1.684-.466 3.112-1.398 4.285-.932 1.172-2.372 2.041-4.32 2.606v.072l7.179 9.921h-5.303l-6.566-9.343h-3.031v9.343h-4.419V13.16h7.341c1.215 0 2.346.07 3.391.207 1.047.139 1.943.346 2.688.623 1.419.541 2.514 1.344 3.283 2.408.77 1.064 1.155 2.402 1.155 4.014zm-11.256 3.843c1.01 0 1.867-.045 2.57-.136.704-.09 1.296-.225 1.777-.406.89-.336 1.506-.796 1.849-1.38.343-.583.514-1.253.514-2.01 0-.65-.135-1.224-.406-1.723-.27-.5-.731-.893-1.38-1.182-.421-.192-.949-.334-1.587-.424-.638-.09-1.425-.135-2.363-.135h-3.157v7.396h2.183zm29.503 6.566a89.01 89.01 0 011.966-6.115l4.168-11.545h6.205v24.135h-4.419v-12.23c0-1.791.072-3.872.216-6.24h-.163a99.77 99.77 0 01-.721 2.308 80.43 80.43 0 01-.866 2.526l-4.997 13.636h-2.849l-4.997-13.637a75.59 75.59 0 01-.866-2.525c-.277-.854-.517-1.623-.722-2.309h-.162c.144 2.225.216 4.3.216 6.224v12.247h-4.419V13.16h6.169l4.167 11.49a83.327 83.327 0 011.966 6.17h.108zm22.83 2.777h11.869v3.698h-16.288V13.16h15.639v3.698h-11.22v6.241h9.632v3.698h-9.632v6.8zm17.524 3.698V13.16h6.386c.565 0 1.139.018 1.722.054a25.22 25.22 0 013.31.424c.517.102.992.226 1.425.37 1.287.409 2.423.962 3.41 1.66a10.226 10.226 0 012.48 2.47c.667.95 1.172 2.012 1.515 3.185.343 1.172.514 2.444.514 3.815 0 1.298-.144 2.516-.433 3.652a10.802 10.802 0 01-1.317 3.112 9.908 9.908 0 01-2.227 2.48c-.896.716-1.957 1.302-3.184 1.76-1.022.384-2.183.672-3.481.865-1.299.192-2.76.288-4.384.288h-5.736zm6.241-3.698c2.586 0 4.606-.354 6.061-1.064 1.287-.637 2.261-1.563 2.922-2.777.662-1.215.992-2.766.992-4.654 0-.987-.108-1.877-.324-2.67a7.32 7.32 0 00-.938-2.12 6.493 6.493 0 00-1.488-1.596 8.186 8.186 0 00-1.975-1.1 10.479 10.479 0 00-2.291-.577 20.2 20.2 0 00-2.832-.181h-1.948v16.74h1.821zm19.44 3.698V13.16h4.42v24.135h-4.42zm24.238-6.15h-9.089l-2.364 6.15h-4.708l9.578-24.135h4.041l9.578 24.135h-4.671l-2.365-6.15zm-4.581-12.177c-.843 2.525-1.596 4.635-2.258 6.33l-.825 2.149h6.239l-.825-2.148c-.654-1.71-1.407-3.82-2.258-6.33h-.073zm27.236 11.4c0-.612-.15-1.108-.451-1.487-.301-.38-.71-.689-1.226-.93a9.004 9.004 0 00-1.741-.586 74.09 74.09 0 00-2.029-.441 26.547 26.547 0 01-2.688-.731 7.55 7.55 0 01-2.255-1.173 5.416 5.416 0 01-1.551-1.903c-.385-.77-.578-1.731-.578-2.886 0-1.275.223-2.384.668-3.328a6.582 6.582 0 011.813-2.345c.764-.62 1.659-1.082 2.688-1.389 1.028-.307 2.185-.46 3.472-.46 1.286 0 2.579.126 3.878.379s2.417.577 3.355.974v3.788c-1.25-.493-2.45-.85-3.598-1.073a17.097 17.097 0 00-3.238-.334c-1.456 0-2.577.265-3.364.794-.788.529-1.182 1.323-1.182 2.38 0 .614.129 1.12.388 1.516.258.397.61.725 1.055.983.445.26.956.466 1.533.623.578.156 1.191.3 1.84.433a35.45 35.45 0 012.932.748 8.697 8.697 0 012.48 1.181 5.41 5.41 0 011.713 1.976c.421.812.632 1.849.632 3.111 0 1.3-.241 2.424-.722 3.374a6.32 6.32 0 01-2.047 2.354c-.884.619-1.957 1.079-3.22 1.38-1.263.3-2.646.45-4.149.45-1.311 0-2.6-.129-3.869-.387-1.269-.259-2.324-.622-3.166-1.092v-3.734c1.191.517 2.351.893 3.481 1.128 1.131.234 2.297.352 3.5.352.697 0 1.383-.057 2.056-.172a6.174 6.174 0 001.813-.586 3.446 3.446 0 001.29-1.128c.325-.474.487-1.06.487-1.758zM98.618 52.385h-5.487v-7.852h1.415v6.648H97.7v-6.648h1.415v6.648h.918v3.803h-1.415v-2.6zm3.896-8.498h1.438v1.508h-1.438v-1.508zm.034 2.811h1.369v5.687h-1.369v-5.687zm7.656 5.687v-2.348h-2.258v2.348h-1.369v-5.687h1.369v2.16h2.258v-2.16h1.369v5.687h-1.369zm3.064-5.687h1.467l.838 2.06c.316.782.539 1.361.67 1.737h.023c.096-.293.3-.837.612-1.632l.866-2.165h1.485l-3.604 8.415h-1.352l1.282-3.045-2.287-5.37zm10.596-.14c.297 0 .581.026.852.081.271.055.519.131.742.23v1.09a4.83 4.83 0 00-.704-.205 3.958 3.958 0 00-.832-.082c-.2 0-.391.025-.572.074a1.495 1.495 0 00-.485.225 1.306 1.306 0 00-.361.397 1.575 1.575 0 00-.199.59h2.801v1.085h-2.842c.043.462.208.806.497 1.033.289.227.678.34 1.167.34.242 0 .492-.022.75-.067.258-.045.549-.13.873-.255v1.109a4.116 4.116 0 01-.812.243c-.291.057-.58.085-.869.085a3.91 3.91 0 01-1.196-.176 2.634 2.634 0 01-.95-.53 2.413 2.413 0 01-.626-.899c-.151-.362-.226-.787-.226-1.276 0-.501.073-.943.217-1.326a2.68 2.68 0 01.609-.969c.262-.262.577-.46.945-.595a3.514 3.514 0 011.221-.203zm7.165 3.943c.219-.79.495-1.68.826-2.67l.387-1.133h1.888v5.687h-1.317v-2.043c0-.5.024-1.191.07-2.071h-.046c-.112.356-.255.791-.431 1.306-.175.514-.382 1.115-.621 1.804l-.346 1.004h-.861l-.352-1.01a132.43 132.43 0 01-.615-1.787c-.171-.51-.315-.95-.43-1.317h-.047c.047.83.07 1.52.07 2.071v2.043h-1.317v-5.687h1.889l.387 1.133c.358 1.072.633 1.962.825 2.67h.041zm11.063-.957c0 .446-.065.853-.196 1.22a2.694 2.694 0 01-.563.946 2.5 2.5 0 01-.887.607 3.017 3.017 0 01-1.161.214c-.438 0-.832-.071-1.181-.214a2.457 2.457 0 01-.886-.607 2.67 2.67 0 01-.558-.945 3.667 3.667 0 01-.193-1.22c0-.447.065-.854.196-1.221.131-.368.319-.683.563-.945.245-.262.54-.465.887-.608a3.024 3.024 0 011.161-.214c.439 0 .833.072 1.181.214.348.143.644.346.887.608.242.262.428.577.557.945.129.367.193.774.193 1.22zm-1.415 0c0-.301-.034-.567-.104-.798a1.734 1.734 0 00-.288-.58 1.186 1.186 0 00-.445-.353 1.358 1.358 0 00-.566-.117c-.2 0-.386.039-.557.117a1.177 1.177 0 00-.442.352c-.123.157-.22.35-.289.581a2.79 2.79 0 00-.104.798c0 .301.035.568.104.798.069.231.166.424.292.578a1.248 1.248 0 001.007.473c.205 0 .391-.04.561-.12a1.24 1.24 0 00.439-.353c.123-.154.219-.347.288-.578.07-.23.104-.497.104-.798zm12.035-2.846v4.507h.855v3.175h-1.328v-1.995h-3.593v1.995h-1.328v-3.175h.393c.242-.262.463-.537.661-.825a4.89 4.89 0 00.511-.965c.143-.356.256-.755.341-1.197.085-.442.139-.949.162-1.52h3.326zm-2.194 1.156a8.81 8.81 0 01-.174 1.056 5.37 5.37 0 01-.632 1.593 8.363 8.363 0 01-.453.678v.024h2.085v-3.35h-.826zm9.963 1.69c0 .446-.066.853-.197 1.22a2.68 2.68 0 01-.563.946c-.244.262-.54.464-.886.607a3.024 3.024 0 01-1.161.214c-.439 0-.833-.071-1.181-.214a2.461 2.461 0 01-.887-.607 2.682 2.682 0 01-.557-.945 3.667 3.667 0 01-.194-1.22c0-.447.066-.854.197-1.221a2.68 2.68 0 01.563-.945c.244-.262.54-.465.886-.608a3.024 3.024 0 011.161-.214c.439 0 .833.072 1.181.214.349.143.644.346.887.608.242.262.428.577.557.945.129.367.194.774.194 1.22zm-1.415 0a2.79 2.79 0 00-.104-.798 1.754 1.754 0 00-.289-.58 1.178 1.178 0 00-.445-.353 1.358 1.358 0 00-.566-.117c-.2 0-.386.039-.557.117a1.185 1.185 0 00-.442.352c-.123.157-.219.35-.289.581a2.79 2.79 0 00-.104.798c0 .301.035.568.104.798.07.231.167.424.292.578.125.155.273.272.445.352.171.08.359.12.563.12a1.232 1.232 0 00.999-.472c.123-.154.219-.347.289-.578.069-.23.104-.497.104-.798zm8.354-1.355c0 .281-.073.528-.219.739a1.33 1.33 0 01-.618.475v.024c.331.09.58.237.747.443.168.205.252.46.252.766 0 .367-.108.691-.324.97-.215.28-.535.489-.958.626-.158.05-.34.089-.546.114a6.247 6.247 0 01-.748.039h-2.189v-5.687h2.466c.208 0 .396.01.563.032.168.022.319.054.454.097.365.114.643.29.834.528.191.239.286.517.286.834zm-2.218.757c.227 0 .397-.032.508-.094a.53.53 0 00.223-.217.626.626 0 00.072-.3.498.498 0 00-.277-.475c-.108-.059-.281-.088-.52-.088h-1.045v1.174h1.039zm-.058 2.365c.147 0 .27-.007.37-.021a.993.993 0 00.248-.062.63.63 0 00.307-.231.636.636 0 00.098-.355.586.586 0 00-.09-.323.58.58 0 00-.257-.217.89.89 0 00-.208-.062 1.689 1.689 0 00-.289-.02h-1.16v1.29h.981zm4.774-7.424h1.438v1.508h-1.438v-1.508zm.035 2.811h1.369v5.687h-1.369v-5.687zm6.83 5.833a2 2 0 01-1.426-.581h-.024a15.4 15.4 0 01.018.798v2.365h-1.369v-8.415h1.201l.058.64h.023c.17-.227.387-.414.653-.56.265-.148.573-.22.924-.22.304 0 .603.057.898.172.294.116.555.293.783.531.227.239.409.54.545.904.137.364.205.796.205 1.297 0 .528-.073.985-.219 1.37a2.829 2.829 0 01-.578.957 2.3 2.3 0 01-1.692.742zm-.179-4.859a1.472 1.472 0 00-.681.18 1.943 1.943 0 00-.572.466v2.535a1.731 1.731 0 00.811.516c.121.035.248.053.378.053.212 0 .401-.046.566-.138.166-.092.304-.222.413-.39.11-.168.194-.369.252-.602.057-.232.086-.492.086-.777 0-.305-.03-.573-.089-.804a1.73 1.73 0 00-.254-.575 1.102 1.102 0 00-.396-.347 1.118 1.118 0 00-.514-.117zm4.311-.974h1.467l.838 2.06c.316.782.539 1.361.67 1.737h.023c.096-.293.3-.837.612-1.632l.866-2.165h1.485l-3.604 8.415h-1.352l1.283-3.045-2.288-5.37zm7.668 4.12h1.6l-1.247 3.978h-1.461l1.108-3.978zm10.571-5.616a3.175 3.175 0 00-.809.173c-.204.08-.377.201-.52.364a1.74 1.74 0 00-.335.622 3.892 3.892 0 00-.156.936h.023a3.59 3.59 0 01.714-.288c.267-.078.54-.117.817-.117.366 0 .701.054 1.005.164a2.1 2.1 0 01.782.49c.218.217.387.49.509.819.121.328.182.712.182 1.15 0 .458-.062.871-.185 1.241a2.66 2.66 0 01-.54.95 2.38 2.38 0 01-.872.611 3.067 3.067 0 01-1.181.214c-.428 0-.808-.084-1.141-.252a2.273 2.273 0 01-.846-.751c-.231-.333-.406-.746-.526-1.242a7.385 7.385 0 01-.179-1.716c0-.657.059-1.258.176-1.802a4.152 4.152 0 01.572-1.417 3.069 3.069 0 011.028-.971c.422-.247.956-.401 1.603-.464l1.663-.158v1.267l-1.784.177zm-1.843 3.239a7.72 7.72 0 00-.011.352c0 .454.034.844.104 1.17.069.328.164.596.286.808.121.211.265.367.433.47.167.1.349.152.545.152.397 0 .71-.16.939-.479.229-.318.344-.763.344-1.335a2.27 2.27 0 00-.11-.754 1.203 1.203 0 00-.292-.48 1.053 1.053 0 00-.416-.247 1.58 1.58 0 00-.476-.074c-.254 0-.501.043-.739.13a3.068 3.068 0 00-.607.287zm9.037 2.97c.265 0 .542-.028.831-.083.289-.055.582-.133.878-.235v1.11c-.177.078-.448.152-.814.223a6.01 6.01 0 01-1.138.105c-.397 0-.773-.052-1.129-.155a2.449 2.449 0 01-.933-.502 2.411 2.411 0 01-.632-.898c-.156-.368-.234-.814-.234-1.338 0-.516.073-.968.219-1.355.147-.388.343-.709.589-.963.247-.254.529-.445.846-.572a2.63 2.63 0 01.985-.19c.354 0 .681.054.979.163.299.11.557.282.774.517.218.235.387.537.508.907.122.37.182.806.182 1.311-.004.196-.009.362-.017.499h-3.668c.02.262.077.486.174.672.096.186.222.336.378.452.156.115.338.2.546.252.208.053.433.08.676.08zm-.549-3.768c-.173 0-.327.032-.462.097a1.095 1.095 0 00-.35.264 1.301 1.301 0 00-.234.39 1.926 1.926 0 00-.115.475h2.2c0-.168-.022-.326-.066-.475a1.182 1.182 0 00-.196-.39.938.938 0 00-.777-.361zm7.893 4.888a1.95 1.95 0 01-.818-.167 2.025 2.025 0 01-.609-.414h-.023a16.745 16.745 0 01.017.798v2.365h-1.369v-8.415h1.202l.058.64h.023c.169-.227.387-.414.652-.56.266-.148.574-.22.924-.22.305 0 .604.057.898.172.295.116.556.293.783.531.227.239.409.54.546.904.136.364.205.796.205 1.297 0 .528-.073.985-.22 1.37a2.827 2.827 0 01-.577.957 2.3 2.3 0 01-1.692.742zm-.179-4.859a1.479 1.479 0 00-.682.18 1.956 1.956 0 00-.572.466v2.535a1.731 1.731 0 00.812.516c.121.035.247.053.378.053.212 0 .4-.046.566-.138.166-.092.303-.222.413-.39.11-.168.193-.369.251-.602.058-.232.087-.492.087-.777 0-.305-.03-.573-.09-.804a1.69 1.69 0 00-.254-.575 1.1 1.1 0 00-.395-.347 1.12 1.12 0 00-.514-.117zm7.65 3.738c.265 0 .543-.027.831-.082.289-.055.582-.133.878-.235v1.11c-.177.078-.448.152-.814.223a6.01 6.01 0 01-1.138.105 4.02 4.02 0 01-1.129-.155 2.449 2.449 0 01-.933-.502 2.423 2.423 0 01-.632-.898c-.156-.368-.234-.814-.234-1.338 0-.516.073-.968.219-1.355a2.77 2.77 0 01.59-.963c.246-.254.528-.445.846-.572.317-.127.646-.19.984-.19.355 0 .681.054.979.163.299.11.557.282.774.517.218.235.387.537.508.907.122.37.182.806.182 1.311a11.77 11.77 0 01-.017.499h-3.667c.019.262.077.486.173.672.096.186.222.336.378.452.156.115.338.2.546.252.208.053.433.08.676.08zm-.549-3.767c-.173 0-.327.032-.462.097a1.08 1.08 0 00-.349.264 1.262 1.262 0 00-.234.39 1.883 1.883 0 00-.116.475h2.201c0-.168-.022-.326-.067-.475a1.182 1.182 0 00-.196-.39.938.938 0 00-.777-.361zm9.111 1.526h.029l1.813-2.471h1.617l-2.188 2.805 2.298 2.882h-1.617l-1.929-2.483h-.023v2.483h-1.369v-2.483h-.023l-1.929 2.483h-1.629l2.311-2.882-2.178-2.805h1.606l1.813 2.47h.029v-2.47h1.369v2.47zm8.384 2.241c.265 0 .542-.027.831-.082.289-.055.582-.133.878-.235v1.11c-.177.078-.448.152-.814.223a6.01 6.01 0 01-1.138.105c-.397 0-.773-.052-1.129-.155a2.449 2.449 0 01-.933-.502 2.411 2.411 0 01-.632-.898c-.156-.368-.234-.814-.234-1.338 0-.516.073-.968.219-1.355.147-.388.343-.709.589-.963.247-.254.529-.445.847-.572.317-.127.645-.19.984-.19.354 0 .681.054.979.163.299.11.557.282.774.517.218.235.387.537.508.907.122.37.182.806.182 1.311-.004.196-.009.362-.017.499h-3.668c.02.262.078.486.174.672.096.186.222.336.378.452.156.115.338.2.546.252.208.053.433.08.676.08zm-.549-3.767c-.173 0-.327.032-.462.097a1.095 1.095 0 00-.35.264 1.279 1.279 0 00-.233.39 1.883 1.883 0 00-.116.475h2.201c0-.168-.023-.326-.067-.475a1.182 1.182 0 00-.196-.39.938.938 0 00-.777-.361zm7.997 2.858c.219-.79.494-1.68.826-2.67l.386-1.133h1.889v5.687h-1.317v-2.043c0-.5.023-1.191.07-2.071h-.047c-.111.356-.255.791-.43 1.306-.175.514-.382 1.115-.621 1.804l-.346 1.004h-.861l-.352-1.01a132.43 132.43 0 01-.615-1.787c-.172-.51-.315-.95-.431-1.317h-.046c.046.83.07 1.52.07 2.071v2.043h-1.317v-5.687h1.888l.387 1.133c.358 1.072.634 1.962.826 2.67h.041zm11.063-.957c0 .446-.066.853-.197 1.22a2.68 2.68 0 01-.563.946c-.244.262-.54.464-.886.607a3.024 3.024 0 01-1.161.214c-.439 0-.833-.071-1.181-.214a2.461 2.461 0 01-.887-.607 2.682 2.682 0 01-.557-.945 3.667 3.667 0 01-.194-1.22c0-.447.066-.854.197-1.221a2.68 2.68 0 01.563-.945c.244-.262.54-.465.886-.608a3.024 3.024 0 011.161-.214c.439 0 .833.072 1.181.214.349.143.644.346.887.608.242.262.428.577.557.945.129.367.194.774.194 1.22zm-1.415 0a2.79 2.79 0 00-.104-.798 1.754 1.754 0 00-.289-.58 1.178 1.178 0 00-.445-.353 1.358 1.358 0 00-.566-.117c-.2 0-.386.039-.557.117a1.177 1.177 0 00-.442.352c-.123.157-.219.35-.289.581a2.79 2.79 0 00-.104.798c0 .301.035.568.104.798.07.231.167.424.292.578.125.155.273.272.445.352.171.08.359.12.563.12a1.232 1.232 0 00.999-.472c.123-.154.219-.347.289-.578.069-.23.104-.497.104-.798zm6.949-.945c0-.164.018-.325.054-.484a1.77 1.77 0 01.462-.839c.118-.12.257-.222.419-.308.162-.086.35-.153.563-.2.214-.047.463-.07.748-.07h2.455v5.687h-1.357v-2.02h-1.08l-1.063 2.02h-1.479l1.231-2.283v-.024a1.574 1.574 0 01-.714-.59 1.624 1.624 0 01-.239-.889zm2.362-.827c-.32 0-.553.063-.699.188a.64.64 0 00-.188.258.874.874 0 00-.06.323c0 .176.04.32.121.434a.71.71 0 00.346.252c.066.024.143.04.231.05.089.01.193.015.312.015h.919v-1.52h-.982zm4.964-1.074h1.369v2.47h.029l1.929-2.47h1.64l-2.287 2.805 2.409 2.882h-1.652l-2.045-2.483h-.023v2.483h-1.369v-5.687zm6.784-2.811h1.438v1.508h-1.438v-1.508zm.035 2.811h1.369v5.687h-1.369v-5.687zm8.06 5.563a3.833 3.833 0 01-1.427.27c-.404 0-.781-.059-1.132-.176a2.55 2.55 0 01-.918-.534 2.473 2.473 0 01-.618-.907c-.15-.365-.225-.793-.225-1.282 0-.547.087-1.017.26-1.408.173-.391.397-.71.673-.954a2.67 2.67 0 01.93-.54 3.192 3.192 0 011.019-.173c.25 0 .491.023.722.068.231.045.441.106.629.184v1.133a3.112 3.112 0 00-.54-.179 2.665 2.665 0 00-.615-.067c-.219 0-.429.034-.629.102-.2.069-.378.177-.532.326a1.547 1.547 0 00-.366.59 2.539 2.539 0 00-.136.883c0 .25.035.486.104.707.069.221.17.41.303.566.133.157.302.283.508.379.206.096.45.144.731.144.25 0 .477-.026.681-.077.205-.05.397-.113.578-.187v1.132zm3.22-4.39h-1.784v-1.173h4.938v1.174h-1.785v4.513h-1.369v-4.513zm6.513-1.173v2.036c.285-.031.572-.047.86-.047.443 0 .829.05 1.158.15.329.1.598.236.806.408.208.172.361.373.459.601.098.23.147.475.147.737 0 .328-.072.615-.216.86a1.804 1.804 0 01-.604.61 2.877 2.877 0 01-.915.36 5.319 5.319 0 01-1.152.118 7.532 7.532 0 01-1.912-.223v-5.61h1.369zm.618 4.695c.427 0 .767-.065 1.019-.194.252-.129.378-.328.378-.599a.673.673 0 00-.072-.31.647.647 0 00-.228-.244 1.267 1.267 0 00-.404-.161 2.65 2.65 0 00-.601-.06 5.5 5.5 0 00-.71.048v1.485c.188.023.394.035.618.035zM37.958 38.327h-5.911v-3.94h5.91v3.94zm0-13.792h-5.911v8.374h5.91v-8.374zm10.836 0h-5.91v8.374h5.91v-8.374zm-20.688 0h-5.91v8.374h5.91v-8.374zm-10.836 0h-5.911v8.374h5.91v-8.374zm1.477 9.851H11.36v.985a2.955 2.955 0 002.955 2.956h4.433v-3.94zm9.36.985v-.985h-7.39v3.94h4.434a2.955 2.955 0 002.955-2.955zm0-16.254h-5.912v3.94h5.911v-3.94zm-10.837 0h-5.911v3.94h5.91v-3.94zm31.524 15.27h-5.91v3.94h5.91v-3.94zm10.837-9.852H53.72v8.374h5.91v-8.374zm0 9.851H53.72v3.94h5.91v-3.94zm-20.196-15.27h-7.388v3.941h7.388v-3.94zm20.196 2.956a2.955 2.955 0 00-2.956-2.955h-4.433v3.94h7.389v-.985zm-9.359-2.955h-8.866v3.94h8.866v-3.94z" fill="#fff"/><path d="M22.791 58.07C10.871 53.32 2.493 42.08 2.493 28.967c0-12.9 8.112-23.988 19.727-28.87C11.63 5.725 4.463 16.532 4.463 28.935c0 12.63 7.423 23.599 18.328 29.135zm41.51-33.294c.004.247.01.498.01.744 0 15.915-12.68 28.82-28.324 28.82-14.348 0-26.2-10.856-28.066-24.934.389 15.57 12.915 28.072 28.313 28.072 15.644 0 28.322-12.905 28.322-28.82 0-1.315-.088-2.61-.256-3.882zM45.926 2.123C58.222 6.241 67.02 17.255 67.02 30.2c0 8.225-3.556 15.678-9.304 21.072C51.966 56.665 42.39 60 35.248 60c12.561 0 33.249-7.881 33.249-29.8 0-21.427-21.349-28.313-22.57-28.077z" fill="#fff"/></svg>