<svg width="14" height="15" fill="none" xmlns="http://www.w3.org/2000/svg"><path fill-rule="evenodd" clip-rule="evenodd" d="M9.303.303a1.036 1.036 0 011.465 0l.732.733.732-.733a1.036 1.036 0 011.465 1.465l-.732.732.732.732a1.036 1.036 0 11-1.465 1.465l-.732-.733-.732.733a1.036 1.036 0 01-1.465-1.465l.732-.732-.732-.732a1.036 1.036 0 010-1.465z" fill="#2F4858"/><path d="M6.76 1.35a1 1 0 01-.11 1.41l-4.3 3.4a1 1 0 00-.35.76V12a1 1 0 001 1h1v-1a1 1 0 011-1h2a1 1 0 011 1v1h1a1 1 0 001-1V8a1 1 0 112 0v4a3 3 0 01-3 3H3a3 3 0 01-3-3V6.92a3 3 0 011.048-2.278l4.301-3.401a1 1 0 011.41.108z" fill="#2F4858"/></svg>