<svg width="24" height="24" fill="none" xmlns="http://www.w3.org/2000/svg"><path d="M0 2a2 2 0 012-2h20a2 2 0 012 2v20a2 2 0 01-2 2H2a2 2 0 01-2-2V2z" fill="#fff"/><path fill-rule="evenodd" clip-rule="evenodd" d="M12 9a1 1 0 01.707.293l3 3a1 1 0 01-1.414 1.414L13 12.414V16a1 1 0 11-2 0v-3.586l-1.293 1.293a1 1 0 01-1.414-1.414l3-3A1 1 0 0112 9z" fill="#2F4858"/><path fill-rule="evenodd" clip-rule="evenodd" d="M6 3a1 1 0 00-1 1v16a1 1 0 001 1h12a1 1 0 001-1V8.414a1 1 0 00-.293-.707l-4.414-4.414A1 1 0 0013.586 3H6zm1.5 2a.5.5 0 00-.5.5v13a.5.5 0 00.5.5h9a.5.5 0 00.5-.5V9.207a.5.5 0 00-.146-.353l-3.708-3.708A.5.5 0 0012.793 5H7.5z" fill="#2F4858"/></svg>