<svg width="48" height="48" viewBox="0 0 48 48" fill="none" xmlns="http://www.w3.org/2000/svg">
<path d="M0 4C0 1.79086 1.79086 0 4 0H44C46.2091 0 48 1.79086 48 4V44C48 46.2091 46.2091 48 44 48H4C1.79086 48 0 46.2091 0 44V4Z" fill="white"/>
<path d="M40 13.058V39.002C40 41.7634 37.7614 44.002 35 44.002H13C10.2386 44.002 8 41.7634 8 39.002V9.002C8 6.24058 10.2386 4.002 13 4.002H30.944C31.2095 3.98517 31.4859 4.07368 31.7071 4.2949L39.7071 12.2949C39.9283 12.5161 40.0168 12.7925 40 13.058ZM30 6.002H13C11.3431 6.002 10 7.34515 10 9.002V39.002C10 40.6589 11.3431 42.002 13 42.002H35C36.6569 42.002 38 40.6589 38 39.002V14.002H31C30.4477 14.002 30 13.5543 30 13.002V6.002ZM32 7.41622V12.002H36.5858L32 7.41622ZM17 20C16.4477 20 16 19.5523 16 19C16 18.4477 16.4477 18 17 18H31C31.5523 18 32 18.4477 32 19C32 19.5523 31.5523 20 31 20H17ZM17 26C16.4477 26 16 25.5523 16 25C16 24.4477 16.4477 24 17 24H31C31.5523 24 32 24.4477 32 25C32 25.5523 31.5523 26 31 26H17ZM17 32C16.4477 32 16 31.5523 16 31C16 30.4477 16.4477 30 17 30H27C27.5523 30 28 30.4477 28 31C28 31.5523 27.5523 32 27 32H17Z" fill="#CFD4E6"/>
<rect x="2" y="32" width="29" height="14" rx="2" fill="#49515E"/>
<path d="M6.264 42C6.416 41.7387 6.572 41.4733 6.732 41.204C6.892 40.9347 7.05867 40.6533 7.232 40.36L8.064 38.944V39.192L7.332 38.02C7.164 37.748 6.99333 37.4747 6.82 37.2C6.64667 36.9227 6.45867 36.6213 6.256 36.296H7.336C7.48267 36.5413 7.62667 36.7813 7.768 37.016C7.90933 37.248 8.044 37.4707 8.172 37.684L8.668 38.504H8.748L9.228 37.676C9.35333 37.4627 9.484 37.2387 9.62 37.004C9.75867 36.7693 9.896 36.5333 10.032 36.296H11.08C10.896 36.6027 10.72 36.896 10.552 37.176C10.3867 37.4533 10.2347 37.7107 10.096 37.948L9.304 39.272V39L10.12 40.244C10.32 40.5507 10.5107 40.8453 10.692 41.128C10.876 41.408 11.0667 41.6987 11.264 42H10.152C10.0027 41.76 9.86 41.5333 9.724 41.32C9.59067 41.1067 9.46133 40.9013 9.336 40.704L8.724 39.728H8.644L8.072 40.708C7.94933 40.916 7.82667 41.124 7.704 41.332C7.584 41.54 7.45467 41.7627 7.316 42H6.264ZM12.1994 42C12.1994 41.6853 12.1994 41.3827 12.1994 41.092C12.1994 40.8013 12.1994 40.4787 12.1994 40.124V38.204C12.1994 37.8413 12.1994 37.512 12.1994 37.216C12.1994 36.92 12.1994 36.6133 12.1994 36.296H13.1394C13.1394 36.6133 13.1394 36.92 13.1394 37.216C13.1394 37.512 13.1394 37.8413 13.1394 38.204V39.976C13.1394 40.3307 13.1394 40.6547 13.1394 40.948C13.1394 41.2387 13.1394 41.54 13.1394 41.852L12.7994 41.172H13.8714C14.1648 41.172 14.4234 41.172 14.6474 41.172C14.8741 41.172 15.0834 41.172 15.2754 41.172C15.4674 41.172 15.6648 41.172 15.8674 41.172V42H12.1994ZM18.513 42.092C18.2757 42.092 18.0343 42.0707 17.789 42.028C17.5463 41.988 17.3197 41.936 17.109 41.872C16.901 41.808 16.733 41.744 16.605 41.68L16.681 40.804C16.865 40.908 17.0543 40.9973 17.249 41.072C17.4463 41.144 17.645 41.2013 17.845 41.244C18.0477 41.284 18.249 41.304 18.449 41.304C18.6677 41.304 18.8623 41.276 19.033 41.22C19.2037 41.1613 19.337 41.072 19.433 40.952C19.5317 40.8293 19.581 40.672 19.581 40.48C19.581 40.296 19.5263 40.144 19.417 40.024C19.3103 39.904 19.1543 39.8 18.949 39.712C18.7437 39.6213 18.4983 39.5333 18.213 39.448C17.8557 39.3387 17.5503 39.2173 17.297 39.084C17.0437 38.948 16.8503 38.7787 16.717 38.576C16.5863 38.3733 16.521 38.112 16.521 37.792C16.521 37.4827 16.5917 37.2067 16.733 36.964C16.877 36.7213 17.0903 36.532 17.373 36.396C17.6583 36.2573 18.0143 36.188 18.441 36.188C18.6117 36.188 18.7823 36.2 18.953 36.224C19.1263 36.248 19.2917 36.28 19.449 36.32C19.609 36.3573 19.7543 36.4013 19.885 36.452C20.0157 36.5027 20.129 36.5547 20.225 36.608L20.141 37.48C19.9783 37.3707 19.805 37.28 19.621 37.208C19.4397 37.1333 19.2597 37.0773 19.081 37.04C18.905 37 18.741 36.98 18.589 36.98C18.3943 36.98 18.2157 37.008 18.053 37.064C17.8903 37.12 17.7597 37.2053 17.661 37.32C17.5623 37.432 17.513 37.576 17.513 37.752C17.513 37.912 17.5557 38.0467 17.641 38.156C17.7263 38.2653 17.861 38.3627 18.045 38.448C18.229 38.5333 18.4663 38.6213 18.757 38.712C19.213 38.856 19.573 39.0027 19.837 39.152C20.101 39.2987 20.2877 39.472 20.397 39.672C20.509 39.872 20.565 40.1227 20.565 40.424C20.565 40.7467 20.493 41.0333 20.349 41.284C20.2077 41.5347 19.985 41.732 19.681 41.876C19.3797 42.02 18.9903 42.092 18.513 42.092ZM21.1234 42C21.2754 41.7387 21.4314 41.4733 21.5914 41.204C21.7514 40.9347 21.918 40.6533 22.0914 40.36L22.9234 38.944V39.192L22.1914 38.02C22.0234 37.748 21.8527 37.4747 21.6794 37.2C21.506 36.9227 21.318 36.6213 21.1154 36.296H22.1954C22.342 36.5413 22.486 36.7813 22.6274 37.016C22.7687 37.248 22.9034 37.4707 23.0314 37.684L23.5274 38.504H23.6074L24.0874 37.676C24.2127 37.4627 24.3434 37.2387 24.4794 37.004C24.618 36.7693 24.7554 36.5333 24.8914 36.296H25.9394C25.7554 36.6027 25.5794 36.896 25.4114 37.176C25.246 37.4533 25.094 37.7107 24.9554 37.948L24.1634 39.272V39L24.9794 40.244C25.1794 40.5507 25.37 40.8453 25.5514 41.128C25.7354 41.408 25.926 41.6987 26.1234 42H25.0114C24.862 41.76 24.7194 41.5333 24.5834 41.32C24.45 41.1067 24.3207 40.9013 24.1954 40.704L23.5834 39.728H23.5034L22.9314 40.708C22.8087 40.916 22.686 41.124 22.5634 41.332C22.4434 41.54 22.314 41.7627 22.1754 42H21.1234Z" fill="white"/>
</svg>
