<svg width="48" height="48" viewBox="0 0 48 48" fill="none" xmlns="http://www.w3.org/2000/svg">
<path d="M0 4C0 1.79086 1.79086 0 4 0H44C46.2091 0 48 1.79086 48 4V44C48 46.2091 46.2091 48 44 48H4C1.79086 48 0 46.2091 0 44V4Z" fill="white"/>
<path d="M40 13.058V39.002C40 41.7634 37.7614 44.002 35 44.002H13C10.2386 44.002 8 41.7634 8 39.002V9.002C8 6.24058 10.2386 4.002 13 4.002H30.944C31.2095 3.98517 31.4859 4.07368 31.7071 4.2949L39.7071 12.2949C39.9283 12.5161 40.0168 12.7925 40 13.058ZM30 6.002H13C11.3431 6.002 10 7.34515 10 9.002V39.002C10 40.6589 11.3431 42.002 13 42.002H35C36.6569 42.002 38 40.6589 38 39.002V14.002H31C30.4477 14.002 30 13.5543 30 13.002V6.002ZM32 7.41622V12.002H36.5858L32 7.41622ZM17 20C16.4477 20 16 19.5523 16 19C16 18.4477 16.4477 18 17 18H31C31.5523 18 32 18.4477 32 19C32 19.5523 31.5523 20 31 20H17ZM17 26C16.4477 26 16 25.5523 16 25C16 24.4477 16.4477 24 17 24H31C31.5523 24 32 24.4477 32 25C32 25.5523 31.5523 26 31 26H17ZM17 32C16.4477 32 16 31.5523 16 31C16 30.4477 16.4477 30 17 30H27C27.5523 30 28 30.4477 28 31C28 31.5523 27.5523 32 27 32H17Z" fill="#CFD4E6"/>
<rect x="2" y="32" width="26" height="14" rx="2" fill="#49515E"/>
<path d="M6.676 42C6.676 41.6853 6.676 41.3827 6.676 41.092C6.676 40.8013 6.676 40.4787 6.676 40.124V38.204C6.676 37.8413 6.676 37.512 6.676 37.216C6.676 36.92 6.676 36.6133 6.676 36.296C6.908 36.296 7.13867 36.296 7.368 36.296C7.6 36.296 7.832 36.296 8.064 36.296C8.296 36.296 8.53333 36.296 8.776 36.296C9.21333 36.296 9.60133 36.36 9.94 36.488C10.2813 36.6133 10.5693 36.7987 10.804 37.044C11.0387 37.2867 11.216 37.5827 11.336 37.932C11.4587 38.2813 11.52 38.68 11.52 39.128C11.52 39.5307 11.4653 39.9067 11.356 40.256C11.2493 40.6027 11.0787 40.9067 10.844 41.168C10.612 41.4293 10.3053 41.6333 9.924 41.78C9.54267 41.9267 9.07867 42 8.532 42C8.29467 42 8.07333 42 7.868 42C7.66267 42 7.46267 42 7.268 42C7.076 42 6.87867 42 6.676 42ZM7.616 41.232H8.536C9.02933 41.232 9.42267 41.14 9.716 40.956C10.0093 40.772 10.22 40.52 10.348 40.2C10.476 39.88 10.54 39.5173 10.54 39.112C10.54 38.8027 10.5027 38.5227 10.428 38.272C10.3533 38.0187 10.2373 37.8027 10.08 37.624C9.92267 37.4427 9.72267 37.304 9.48 37.208C9.23733 37.112 8.948 37.064 8.612 37.064H7.616C7.616 37.2747 7.616 37.4867 7.616 37.7C7.616 37.9107 7.616 38.144 7.616 38.4V39.92C7.616 40.1707 7.616 40.4013 7.616 40.612C7.616 40.82 7.616 41.0267 7.616 41.232ZM15.1748 42.096C14.6788 42.096 14.2468 42.0173 13.8788 41.86C13.5135 41.7027 13.2095 41.4867 12.9668 41.212C12.7268 40.9373 12.5468 40.6227 12.4268 40.268C12.3068 39.9133 12.2468 39.5387 12.2468 39.144C12.2468 38.592 12.3575 38.0933 12.5788 37.648C12.8028 37.2 13.1295 36.8453 13.5588 36.584C13.9908 36.32 14.5201 36.188 15.1468 36.188C15.6215 36.188 16.0388 36.264 16.3988 36.416C16.7615 36.568 17.0641 36.78 17.3068 37.052C17.5521 37.3213 17.7361 37.6347 17.8588 37.992C17.9815 38.3493 18.0428 38.7333 18.0428 39.144C18.0428 39.7067 17.9308 40.2107 17.7068 40.656C17.4828 41.1013 17.1561 41.4533 16.7268 41.712C16.3001 41.968 15.7828 42.096 15.1748 42.096ZM15.1548 41.304C15.4828 41.304 15.7668 41.2453 16.0068 41.128C16.2468 41.0107 16.4455 40.8507 16.6028 40.648C16.7601 40.4453 16.8761 40.2147 16.9508 39.956C17.0281 39.6973 17.0668 39.4267 17.0668 39.144C17.0668 38.84 17.0255 38.5573 16.9428 38.296C16.8601 38.0347 16.7375 37.8053 16.5748 37.608C16.4148 37.4107 16.2161 37.2573 15.9788 37.148C15.7415 37.036 15.4668 36.98 15.1548 36.98C14.8321 36.98 14.5508 37.0373 14.3108 37.152C14.0708 37.2667 13.8695 37.4253 13.7068 37.628C13.5468 37.8307 13.4268 38.0613 13.3468 38.32C13.2668 38.5787 13.2268 38.8533 13.2268 39.144C13.2268 39.432 13.2655 39.7053 13.3428 39.964C13.4201 40.2227 13.5375 40.4533 13.6948 40.656C13.8548 40.856 14.0561 41.0147 14.2988 41.132C14.5415 41.2467 14.8268 41.304 15.1548 41.304ZM21.7341 42.096C21.2781 42.096 20.8674 42.024 20.5021 41.88C20.1367 41.7333 19.8261 41.528 19.5701 41.264C19.3141 41 19.1181 40.688 18.9821 40.328C18.8461 39.968 18.7781 39.5733 18.7781 39.144C18.7781 38.5707 18.8954 38.0613 19.1301 37.616C19.3647 37.1707 19.6954 36.8213 20.1221 36.568C20.5487 36.3147 21.0514 36.188 21.6301 36.188C21.8167 36.188 21.9994 36.2013 22.1781 36.228C22.3567 36.252 22.5261 36.2867 22.6861 36.332C22.8487 36.3747 22.9994 36.4227 23.1381 36.476C23.2767 36.5267 23.3981 36.5813 23.5021 36.64L23.4221 37.528C23.2167 37.4027 23.0167 37.3013 22.8221 37.224C22.6274 37.1467 22.4381 37.0907 22.2541 37.056C22.0701 37.0187 21.8914 37 21.7181 37C21.3394 37 21.0021 37.0867 20.7061 37.26C20.4101 37.4307 20.1781 37.676 20.0101 37.996C19.8421 38.316 19.7581 38.6987 19.7581 39.144C19.7581 39.44 19.8007 39.7187 19.8861 39.98C19.9741 40.2387 20.1047 40.468 20.2781 40.668C20.4514 40.8653 20.6687 41.0213 20.9301 41.136C21.1914 41.248 21.4941 41.304 21.8381 41.304C21.9714 41.304 22.1034 41.296 22.2341 41.28C22.3674 41.2613 22.4994 41.2333 22.6301 41.196C22.7634 41.1587 22.8941 41.108 23.0221 41.044C23.1527 40.98 23.2807 40.904 23.4061 40.816L23.4701 41.696C23.3554 41.7627 23.2301 41.8227 23.0941 41.876C22.9581 41.9267 22.8154 41.968 22.6661 42C22.5167 42.032 22.3634 42.056 22.2061 42.072C22.0487 42.088 21.8914 42.096 21.7341 42.096Z" fill="white"/>
</svg>
