<svg width="48" height="48" viewBox="0 0 48 48" fill="none" xmlns="http://www.w3.org/2000/svg">
<path d="M0 4C0 1.79086 1.79086 0 4 0H44C46.2091 0 48 1.79086 48 4V44C48 46.2091 46.2091 48 44 48H4C1.79086 48 0 46.2091 0 44V4Z" fill="white"/>
<path d="M40 13.058V39.002C40 41.7634 37.7614 44.002 35 44.002H13C10.2386 44.002 8 41.7634 8 39.002V9.002C8 6.24058 10.2386 4.002 13 4.002H30.944C31.2095 3.98517 31.4859 4.07368 31.7071 4.2949L39.7071 12.2949C39.9283 12.5161 40.0168 12.7925 40 13.058ZM30 6.002H13C11.3431 6.002 10 7.34515 10 9.002V39.002C10 40.6589 11.3431 42.002 13 42.002H35C36.6569 42.002 38 40.6589 38 39.002V14.002H31C30.4477 14.002 30 13.5543 30 13.002V6.002ZM32 7.41622V12.002H36.5858L32 7.41622ZM17 20C16.4477 20 16 19.5523 16 19C16 18.4477 16.4477 18 17 18H31C31.5523 18 32 18.4477 32 19C32 19.5523 31.5523 20 31 20H17ZM17 26C16.4477 26 16 25.5523 16 25C16 24.4477 16.4477 24 17 24H31C31.5523 24 32 24.4477 32 25C32 25.5523 31.5523 26 31 26H17ZM17 32C16.4477 32 16 31.5523 16 31C16 30.4477 16.4477 30 17 30H27C27.5523 30 28 30.4477 28 31C28 31.5523 27.5523 32 27 32H17Z" fill="#CFD4E6"/>
<rect x="2" y="32" width="24" height="14" rx="2" fill="#49515E"/>
<path d="M6.672 42C6.672 41.6853 6.672 41.3827 6.672 41.092C6.672 40.8013 6.672 40.4787 6.672 40.124V38.2C6.672 37.8427 6.672 37.5147 6.672 37.216C6.672 36.9173 6.672 36.6107 6.672 36.296C6.896 36.296 7.188 36.296 7.548 36.296C7.908 36.296 8.32133 36.296 8.788 36.296C9.23333 36.296 9.60267 36.3533 9.896 36.468C10.1893 36.5827 10.4093 36.764 10.556 37.012C10.7027 37.26 10.776 37.5853 10.776 37.988C10.776 38.3453 10.7107 38.6627 10.58 38.94C10.4493 39.2173 10.2333 39.4347 9.932 39.592C9.63067 39.7493 9.224 39.828 8.712 39.828C8.58133 39.828 8.44 39.828 8.288 39.828C8.13867 39.828 7.992 39.828 7.848 39.828C7.704 39.828 7.58 39.828 7.476 39.828V39.064H8.516C8.81733 39.064 9.064 39.028 9.256 38.956C9.448 38.884 9.58933 38.7693 9.68 38.612C9.77333 38.4547 9.82 38.2493 9.82 37.996C9.82 37.788 9.78667 37.6227 9.72 37.5C9.65333 37.3747 9.56533 37.2813 9.456 37.22C9.34933 37.156 9.23067 37.1133 9.1 37.092C8.972 37.0707 8.84667 37.06 8.724 37.06H7.144L7.6 36.44C7.6 36.7547 7.6 37.0613 7.6 37.36C7.6 37.656 7.6 37.984 7.6 38.344V40.124C7.6 40.4787 7.6 40.8013 7.6 41.092C7.6 41.3827 7.6 41.6853 7.6 42H6.672ZM11.7619 42C11.7619 41.6853 11.7619 41.3827 11.7619 41.092C11.7619 40.8013 11.7619 40.4787 11.7619 40.124V38.204C11.7619 37.8413 11.7619 37.512 11.7619 37.216C11.7619 36.92 11.7619 36.6133 11.7619 36.296C11.9939 36.296 12.2246 36.296 12.4539 36.296C12.6859 36.296 12.9179 36.296 13.1499 36.296C13.3819 36.296 13.6193 36.296 13.8619 36.296C14.2993 36.296 14.6873 36.36 15.0259 36.488C15.3673 36.6133 15.6553 36.7987 15.8899 37.044C16.1246 37.2867 16.3019 37.5827 16.4219 37.932C16.5446 38.2813 16.6059 38.68 16.6059 39.128C16.6059 39.5307 16.5513 39.9067 16.4419 40.256C16.3353 40.6027 16.1646 40.9067 15.9299 41.168C15.6979 41.4293 15.3913 41.6333 15.0099 41.78C14.6286 41.9267 14.1646 42 13.6179 42C13.3806 42 13.1593 42 12.9539 42C12.7486 42 12.5486 42 12.3539 42C12.1619 42 11.9646 42 11.7619 42ZM12.7019 41.232H13.6219C14.1153 41.232 14.5086 41.14 14.8019 40.956C15.0953 40.772 15.3059 40.52 15.4339 40.2C15.5619 39.88 15.6259 39.5173 15.6259 39.112C15.6259 38.8027 15.5886 38.5227 15.5139 38.272C15.4393 38.0187 15.3233 37.8027 15.1659 37.624C15.0086 37.4427 14.8086 37.304 14.5659 37.208C14.3233 37.112 14.0339 37.064 13.6979 37.064H12.7019C12.7019 37.2747 12.7019 37.4867 12.7019 37.7C12.7019 37.9107 12.7019 38.144 12.7019 38.4V39.92C12.7019 40.1707 12.7019 40.4013 12.7019 40.612C12.7019 40.82 12.7019 41.0267 12.7019 41.232ZM17.6448 42C17.6448 41.6853 17.6448 41.3827 17.6448 41.092C17.6448 40.8013 17.6448 40.4787 17.6448 40.124V38.204C17.6448 37.8413 17.6448 37.512 17.6448 37.216C17.6448 36.92 17.6448 36.6133 17.6448 36.296H21.2128V37.092C20.9541 37.092 20.6768 37.092 20.3808 37.092C20.0848 37.092 19.7354 37.092 19.3328 37.092H18.1768L18.5648 36.44C18.5648 36.7547 18.5648 37.0613 18.5648 37.36C18.5648 37.656 18.5648 37.984 18.5648 38.344V40.124C18.5648 40.4787 18.5648 40.8013 18.5648 41.092C18.5648 41.3827 18.5648 41.6853 18.5648 42H17.6448ZM18.3368 39.552V38.784H19.3728C19.7354 38.784 20.0474 38.784 20.3088 38.784C20.5701 38.784 20.8221 38.784 21.0648 38.784V39.552C20.8061 39.552 20.5461 39.552 20.2848 39.552C20.0261 39.552 19.7208 39.552 19.3688 39.552H18.3368Z" fill="white"/>
</svg>
