<svg width="18" height="16" fill="none" xmlns="http://www.w3.org/2000/svg"><path fill-rule="evenodd" clip-rule="evenodd" d="M4 10.83a3.001 3.001 0 000-5.66V1a1 1 0 00-2 0v4.171a3.001 3.001 0 000 5.658V15a1 1 0 102 0v-4.17zM3 7a1 1 0 110 2 1 1 0 010-2z" fill="#A4A9B3"/><path fill-rule="evenodd" clip-rule="evenodd" d="M9 16a3 3 0 001-5.83V1a1 1 0 10-2 0v9.171A3.001 3.001 0 009 16zm0-4a1 1 0 110 2 1 1 0 010-2zm7-6.17a3.001 3.001 0 10-2 0V15a1 1 0 102 0V5.83zM15 2a1 1 0 110 2 1 1 0 010-2z" fill="#A4A9B3"/></svg>