<svg width="12" height="14" fill="none" xmlns="http://www.w3.org/2000/svg"><path fill-rule="evenodd" clip-rule="evenodd" d="M5.293 7.293a1 1 0 011.414 0l2 2A1 1 0 018 11H4a1 1 0 01-.707-1.707l2-2z" fill="#2F4858"/><path fill-rule="evenodd" clip-rule="evenodd" d="M0 13V1a1 1 0 011-1h6.586a1 1 0 01.707.293l3.414 3.414a1 1 0 01.293.707V13a1 1 0 01-1 1H1a1 1 0 01-1-1zm2-1.5v-9a.5.5 0 01.5-.5h4.293a.5.5 0 01.353.146l2.708 2.708a.5.5 0 01.146.353V11.5a.5.5 0 01-.5.5h-7a.5.5 0 01-.5-.5z" fill="#2F4858"/></svg>