<svg width="40" height="38" fill="none" xmlns="http://www.w3.org/2000/svg"><path d="M21.492 24.017H17.91V21.63h3.582v2.388zm0-8.358H17.91v5.075h3.582v-5.075zm6.568 0h-3.582v5.075h3.582v-5.075zm-12.538 0H11.94v5.075h3.582v-5.075zm-6.567 0H5.373v5.075h3.582v-5.075zm.896 5.97H5.373v.597c0 .99.802 1.791 1.791 1.791h2.687V21.63zm5.671.597v-.597h-4.477v2.388h2.686a1.79 1.79 0 001.791-1.79zm0-9.85H11.94v2.387h3.582v-2.388zm-6.567 0H5.373v2.387h3.582v-2.388zm19.105 9.253h-3.582v2.388h3.582V21.63zm6.567-5.97h-3.582v5.075h3.582v-5.075zm0 5.97h-3.582v2.388h3.582V21.63zm-12.239-9.254H17.91v2.388h4.478v-2.388zm12.239 1.791a1.79 1.79 0 00-1.791-1.79h-2.687v2.387h4.478v-.597zm-5.672-1.79h-5.373v2.387h5.373v-2.388z" fill="url(#paint0_linear)"/><path d="M12.302 35.981C5.078 33.104 0 26.291 0 18.345 0 10.529 4.916 3.809 11.955.85 5.537 4.259 1.194 10.808 1.194 18.325c0 7.653 4.499 14.301 11.108 17.656zm25.155-20.176c.003.15.006.302.006.451 0 9.645-7.684 17.466-17.165 17.466-8.695 0-15.877-6.58-17.008-15.11.235 9.435 7.826 17.011 17.158 17.011 9.48 0 17.164-7.82 17.164-17.465 0-.798-.054-1.583-.155-2.353zM26.322 2.077c7.451 2.495 12.783 9.17 12.783 17.015 0 4.985-2.156 9.501-5.64 12.77-3.483 3.269-9.286 5.29-13.614 5.29 7.612 0 20.149-4.777 20.149-18.06C40 6.107 27.062 1.934 26.322 2.077z" fill="#201600"/><defs><linearGradient id="paint0_linear" x1="5.373" y1="18.196" x2="34.627" y2="18.196" gradientUnits="userSpaceOnUse"><stop stop-color="#4C2117"/><stop offset=".5" stop-color="#A14844"/><stop offset="1" stop-color="#54261D"/></linearGradient></defs></svg>