<svg width="24" height="24" viewBox="0 0 24 24" fill="none" xmlns="http://www.w3.org/2000/svg">
    <rect width="24" height="24" rx="4" fill="white" />
    <path d="M12.3014 3.1011C12.1232 2.9663 11.8768 2.9663 11.6986 3.1011C11.4252 3.3077 5 8.22767 5 14C5 17.8598 8.1402 21 12 21C15.8598 21 19 17.8598 19 14C19 8.22767 12.5748 3.3077 12.3014 3.1011Z" fill="#FFC76D" />
    <path d="M10.7078 17.9878C10.787 17.9951 10.8566 17.9297 10.8631 17.8419C10.8639 17.8318 10.8637 17.8217 10.8628 17.8116C10.7553 16.7214 11.1213 15.6394 11.8489 14.8958C11.9363 14.8059 12.0715 14.8059 12.1589 14.8958C12.8891 15.6425 13.2548 16.7298 13.1436 17.8237C13.1352 17.9114 13.1925 17.9899 13.2716 17.9992C13.2747 17.9996 13.2777 17.9999 13.2808 18C16.7837 17.3922 16.0856 14.1133 15.585 12.6501C15.5409 12.5153 15.425 12.4259 15.2956 12.4268C15.1933 12.4267 15.0979 12.4839 15.0418 12.5787C14.7158 13.0958 14.2751 13.5112 13.7622 13.7851C14.1257 10.1385 12.0903 8.63733 11.111 8.04324C10.9636 7.95183 10.7772 8.01009 10.6947 8.17337C10.6645 8.23316 10.6514 8.30169 10.657 8.36992C10.7448 9.88934 9.46653 11.8828 8.72041 12.9145C8.19263 13.6238 7.93836 14.5349 8.01269 15.4504C8.21568 17.5746 10.0837 17.9286 10.7078 17.9878Z" fill="white" />
</svg>