<svg width="24" height="24" viewBox="0 0 24 24" fill="none" xmlns="http://www.w3.org/2000/svg">
    <rect width="24" height="24" rx="4" fill="white" />
    <path d="M12 21C15.8598 21 19 17.8598 19 14C19 8.22767 12.5748 3.3077 12.3014 3.1011C12.1232 2.9663 11.8768 2.9663 11.6986 3.1011C11.4252 3.3077 5 8.22767 5 14C5 17.8598 8.1402 21 12 21Z" fill="#257CCC" />
    <path d="M8.68229 15.9147L9.18172 15.6294V16.2C9.18172 16.4486 9.38531 16.65 9.63658 16.65C9.88784 16.65 10.0914 16.4486 10.0914 16.2V15.1097L11.5451 14.2794V15.9403L10.5909 16.4853C10.3734 16.6095 10.2988 16.8847 10.4244 17.1C10.5086 17.2444 10.6616 17.325 10.8187 17.325C10.896 17.325 10.974 17.3056 11.0457 17.2647L11.5451 16.9794V17.55C11.5451 17.7986 11.7487 18 12 18C12.2513 18 12.4549 17.7986 12.4549 17.55V16.9794L12.9543 17.2647C13.026 17.3057 13.104 17.325 13.1813 17.325C13.3384 17.325 13.4914 17.2444 13.5756 17.1C13.7012 16.8847 13.6266 16.6095 13.4091 16.4853L12.4549 15.9403V14.2794L13.9086 15.1097V16.2C13.9086 16.4486 14.1122 16.65 14.3634 16.65C14.6147 16.65 14.8183 16.4486 14.8183 16.2V15.6294L15.3177 15.9147C15.3894 15.9557 15.4674 15.975 15.5448 15.975C15.7018 15.975 15.8548 15.8942 15.939 15.75C16.0646 15.5347 15.99 15.2595 15.7726 15.1353L15.2731 14.85L15.7726 14.5647C15.99 14.4405 16.0646 14.1653 15.939 13.95C15.8135 13.7345 15.5348 13.6611 15.3177 13.7853L14.3634 14.3303L12.9097 13.5L14.3634 12.6697L15.3177 13.2147C15.3894 13.2557 15.4674 13.275 15.5448 13.275C15.7018 13.275 15.8548 13.1944 15.939 13.05C16.0646 12.8347 15.99 12.5595 15.7726 12.4353L15.2731 12.15L15.7726 11.8647C15.99 11.7405 16.0646 11.4653 15.939 11.25C15.8135 11.0345 15.5348 10.9611 15.3177 11.0853L14.8183 11.3706V10.8C14.8183 10.5514 14.6147 10.35 14.3634 10.35C14.1122 10.35 13.9086 10.5514 13.9086 10.8V11.8903L12.4549 12.7206V11.0597L13.4091 10.5147C13.6266 10.3905 13.7012 10.1153 13.5756 9.9C13.4501 9.68436 13.1712 9.6111 12.9543 9.7353L12.4549 10.0206V9.45C12.4549 9.20142 12.2513 9 12 9C11.7487 9 11.5451 9.20142 11.5451 9.45V10.0206L11.0457 9.7353C10.8287 9.6111 10.5499 9.68436 10.4244 9.9C10.2988 10.1153 10.3734 10.3905 10.5909 10.5147L11.5451 11.0597V12.7206L10.0914 11.8903V10.8C10.0914 10.5514 9.88784 10.35 9.63658 10.35C9.38531 10.35 9.18172 10.5514 9.18172 10.8V11.3706L8.68229 11.0853C8.46524 10.9611 8.1865 11.0347 8.06096 11.25C7.93542 11.4653 8.01002 11.7405 8.22744 11.8647L8.72687 12.15L8.22744 12.4353C8.01002 12.5595 7.93542 12.8347 8.06096 13.05C8.1452 13.1944 8.29821 13.275 8.45523 13.275C8.53255 13.275 8.61061 13.2556 8.68229 13.2147L9.63658 12.6697L11.0903 13.5L9.63658 14.3303L8.68229 13.7853C8.46524 13.6611 8.1865 13.7345 8.06096 13.95C7.93542 14.1653 8.01002 14.4405 8.22744 14.5647L8.72687 14.85L8.22744 15.1353C8.01002 15.2595 7.93542 15.5347 8.06096 15.75C8.1452 15.8944 8.29821 15.975 8.45523 15.975C8.53237 15.975 8.61061 15.9557 8.68229 15.9147Z" fill="white" />
</svg>