<svg width="24" height="24" viewBox="0 0 24 24" fill="none" xmlns="http://www.w3.org/2000/svg">
    <rect width="24" height="24" rx="4" fill="white" />
    <path d="M19.3503 8.20033L12.9196 3.31288C12.3708 2.89571 11.6292 2.89571 11.0804 3.31288L4.64972 8.20033C4.24164 8.51045 4 9.00758 4 9.53676V19.3507C4 20.2616 4.70264 21 5.56934 21H18.4306C19.2974 21 20 20.2616 20 19.3507V9.53676C20 9.00758 19.7583 8.51045 19.3503 8.20033ZM9.07281 15.907L9.30829 16.6735C9.45459 17.1498 9.23694 17.7118 8.73932 17.9218L8.70917 17.9345L8.62677 17.9573C8.62201 17.9586 8.617 17.96 8.61182 17.9615C8.55615 17.9773 8.47589 18 8.3703 18C7.92682 18 7.56671 17.6961 7.43481 17.3044L7.43079 17.2919L7.198 16.534L7.19696 16.5308C6.8313 15.3971 6.98639 14.0632 7.56592 13.091C7.90125 12.531 7.92957 11.7081 7.64392 11.0853L7.64093 11.0786L7.3537 10.427C7.15027 9.95564 7.28662 9.3694 7.78394 9.11549C8.32269 8.84041 8.90973 9.08205 9.12384 9.57332L9.41205 10.2273C9.98663 11.4742 9.91168 12.9714 9.26007 14.1115L9.25385 14.1223L9.24713 14.1328C8.94342 14.6068 8.89001 15.3121 9.07281 15.907ZM12.6728 15.907L12.9083 16.6735C13.0546 17.1498 12.8369 17.7118 12.3393 17.9218L12.3092 17.9345L12.2268 17.9573C12.222 17.9586 12.217 17.96 12.2118 17.9615C12.1562 17.9773 12.0759 18 11.9703 18C11.5268 18 11.1667 17.6961 11.0348 17.3044L11.0308 17.2919L10.798 16.534L10.797 16.5308C10.4313 15.3971 10.5864 14.0632 11.1659 13.091C11.5013 12.531 11.5296 11.7081 11.2439 11.0853L11.2409 11.0786L10.9537 10.427C10.7503 9.95564 10.8866 9.3694 11.3839 9.11549C11.9227 8.84041 12.5097 9.08205 12.7238 9.57332L13.0105 10.224L13.0121 10.2273C13.5867 11.4742 13.5117 12.9714 12.8601 14.1115L12.8539 14.1223L12.8471 14.1328C12.5434 14.6068 12.49 15.3121 12.6728 15.907ZM16.2728 15.9062L16.5083 16.6726C16.6546 17.1488 16.4369 17.7108 15.9393 17.9208L15.9092 17.9335L15.8268 17.9563C15.822 17.9576 15.817 17.959 15.8118 17.9605C15.7562 17.9763 15.6759 17.999 15.5703 17.999C15.1268 17.999 14.7667 17.6952 14.6348 17.3035L14.6306 17.291L14.398 16.5331L14.397 16.53C14.0313 15.3964 14.1859 14.0634 14.7655 13.0913C15.1008 12.5314 15.1296 11.7078 14.8439 11.0851L14.8409 11.0785L14.5537 10.4269C14.3502 9.95552 14.4866 9.36934 14.984 9.11549C15.5227 8.84041 16.1098 9.08205 16.3238 9.57326C16.324 9.57381 16.3243 9.5743 16.3245 9.57478L16.6105 10.2238L16.6121 10.2271C17.1867 11.4739 17.1117 12.971 16.46 14.1109L16.4538 14.1218L16.4471 14.1323C16.1434 14.6062 16.09 15.3114 16.2728 15.9062Z" fill="#FFA979" />
</svg>